<svg xmlns="http://www.w3.org/2000/svg" viewBox="0 0 314.71 301.25"><defs><style>.cls-1{fill:none;}.cls-2{fill:#19f490;}.cls-3{fill:#221f20;}</style></defs><title>faviconRisorsa 4</title><g id="Livello_2" data-name="Livello 2"><g id="Livello_1-2" data-name="Livello 1"><path class="cls-1" d="M149.05,186.61l-28.83,27.84h0l-1.1-1.13L70.94,163.68a104.44,104.44,0,0,0-1.28,16.53c0,42,23.72,64.72,55.83,64.72,31.12,0,54.84-22.23,54.84-64.72a101.8,101.8,0,0,0-2.24-21.83L149,186.56Z"/><path class="cls-1" d="M90.13,125.9l31,31.9,35.76-34.64c-8.79-6.42-19.54-9.65-31.36-9.65C111.76,113.51,99.59,117.7,90.13,125.9Z"/><path class="cls-2" d="M47,81.43,32.3,66.31l-6.07,1.12L5,95.72l14.4,14.83A110.85,110.85,0,0,1,47,81.43Z"/><path class="cls-2" d="M284,0,201.42,80l-44.57,43.18L121.09,157.8l-31-31.9c-9.7,8.39-16.52,21-19.19,37.78l48.18,49.64,1.1,1.13h0l28.83-27.84-.05-.05,29.09-28.18,51.35-49.74,84.89-82.25.38-7.52Z"/><path class="cls-3" d="M229.44,108.64l-51.35,49.74a101.8,101.8,0,0,1,2.24,21.83c0,42.49-23.72,64.72-54.84,64.72-32.11,0-55.83-22.72-55.83-64.72a104.44,104.44,0,0,1,1.28-16.53c2.67-16.76,9.49-29.39,19.19-37.78,9.46-8.2,21.63-12.39,35.36-12.39,11.82,0,22.57,3.23,31.36,9.65L201.42,80C180.7,65.3,154.59,57.19,125.49,57.19c-29.57,0-56.93,8.45-78.51,24.24a110.85,110.85,0,0,0-27.6,29.12C7.14,129.36,0,152.77,0,180.21c0,71.15,53.85,121,125.49,121,70.65,0,124.5-48.41,124.5-121C250,152.3,242.52,128.05,229.44,108.64Z"/></g></g></svg>