<svg xmlns="http://www.w3.org/2000/svg" viewBox="0 0 867.85 219.81"><defs><style>.cls-1{fill:#fff;}.cls-2{fill:none;}.cls-3{fill:#19f490;}</style></defs><title>logo-negativoRisorsa 2</title><g id="Livello_2" data-name="Livello 2"><g id="Livello_1-2" data-name="Livello 1"><path class="cls-1" d="M100,177.89l-6.28,34.74c-6,2.09-18.27,4.49-30.25,4.49-33.24,0-47.92-15-47.92-44V102.72H0V94.34L48.51,40.43h9V77h38l-6.59,25.76H57.5V169.8c0,13.78,5.69,16.47,14.37,16.47,9.89,0,16.18-3.89,20.07-10.78Z"/><path class="cls-1" d="M223.32,118.29l-8.38-1.79c0-5.09-3.59-8.69-15.87-8.69-13.18,0-26.06,8.39-33.24,20.66v64.69c0,9,4.19,13.18,12.28,13.18v8.38H111.32v-8.38c8.69,0,12.28-4.49,12.28-13.18V99.43c0-10.79-5.69-14.08-12.28-14.08V77.26l51.81-5.39V94h.6c8.39-10.78,22.76-22.16,40.13-22.16,13.78,0,22.46,2.7,28.45,5.09Z"/><path class="cls-1" d="M374.54,214.72l-47,.6a62.3,62.3,0,0,1-2.39-11.68h-.6c-8.39,8.39-22.16,16.17-40.73,16.17-31.44,0-53.31-11.67-53.31-37.13,0-26.65,19.17-43.42,58.4-52.71l32.05-7.48c-.3-12-7.79-17.37-28.46-17.37-27.55,0-35.33,7.48-40.42,13.17L244,116.5l7.79-39.83a226.62,226.62,0,0,1,46.12-4.8c40.13,0,64.38,14.08,64.38,56.31v65.88c0,8.68,4.49,12.28,12.28,12.28Zm-53.6-63.78-25.76,6.58C277.51,162,271.52,168.3,271.52,177c0,7.79,5.39,11.38,17.37,11.38,24.86,0,32.05-15,32.05-27.25Z"/><path class="cls-1" d="M511.27,171.7,504.7,210c-7.77,4.48-24.81,9.86-45.73,9.86-47.22,0-80.7-23-80.7-72.62,0-49.91,35.57-75.32,78.31-75.32,23.61,0,36.16,2.69,47.22,6.88l6,38.55L502,120c-8.37-9.56-20.33-14.64-41.55-14.64-24.5,0-39.75,14.64-39.75,41.54,0,27.2,15.25,39.45,42.14,39.45,20.63,0,34.08-8.07,40-16.74Z"/><path class="cls-1" d="M690.36,219.81h-56a357.89,357.89,0,0,1-30.91-62.59l-21.86,22.47v14.37c0,7.19,3.9,12.28,12.28,12.28v8.38H527.08v-8.38c9,0,12.28-5.69,12.28-12.28V27.55c0-10.18-3.9-14.37-12.28-14.37V5.09L581.58,0V134.76h.6l29.05-35.63c2.1-2.7,5.39-7.19,5.39-9,0-3-1.8-4.79-5.69-4.79V77h70.68v8.39a20.94,20.94,0,0,0-16.47,7.49l-30.85,35.93c9.28,24,24.62,52.41,38.1,73.08,4.49,6.88,9.88,9.58,18,9.58Z"/><path class="cls-2" d="M780.7,150.32,763.23,167.2h0l-.67-.69-29.2-30.09a63,63,0,0,0-.78,10c0,25.46,14.38,39.24,33.84,39.24,18.87,0,33.24-13.48,33.24-39.24a61.87,61.87,0,0,0-1.35-13.23l-17.63,17.08Z"/><path class="cls-2" d="M745,113.52l18.77,19.34,21.67-21a31.74,31.74,0,0,0-19-5.85C758.1,106,750.72,108.55,745,113.52Z"/><path class="cls-3" d="M718.83,86.57l-8.89-9.17-3.69.68L693.38,95.23l8.72,9A67.17,67.17,0,0,1,718.83,86.57Z"/><path class="cls-3" d="M849.21,50.06,812.45,85.69l-27,26.17-21.67,21L745,113.52c-5.88,5.09-10,12.75-11.63,22.9l29.2,30.09.67.69h0l17.47-16.88,0,0,17.63-17.08,31.12-30.15,38.19-37,.23-4.57Z"/><path class="cls-1" d="M829.43,103.06l-31.12,30.15a61.87,61.87,0,0,1,1.35,13.23c0,25.76-14.37,39.24-33.24,39.24-19.46,0-33.84-13.78-33.84-39.24a63,63,0,0,1,.78-10c1.62-10.15,5.75-17.81,11.63-22.9S758.1,106,766.42,106a31.74,31.74,0,0,1,19,5.85l27-26.17c-12.56-8.9-28.39-13.82-46-13.82-17.92,0-34.51,5.13-47.59,14.7a67.17,67.17,0,0,0-16.73,17.65c-7.42,11.4-11.74,25.59-11.74,42.22,0,43.13,32.64,73.37,76.06,73.37,42.83,0,75.47-29.34,75.47-73.37C841.89,129.52,837.36,114.83,829.43,103.06Z"/></g></g></svg>